<mxfile host="app.diagrams.net" agent="Mozilla/5.0 (Macintosh; Intel Mac OS X 10_15_7) AppleWebKit/537.36 (KHTML, like Gecko) Chrome/138.0.0.0 Safari/537.36" version="28.2.0">
  <diagram id="R2lEEEUBdFMjLlhIrx00" name="Page-1">
    <mxGraphModel dx="3482" dy="1397" grid="1" gridSize="10" guides="1" tooltips="1" connect="1" arrows="1" fold="1" page="1" pageScale="1" pageWidth="850" pageHeight="1100" math="0" shadow="0" extFonts="Permanent Marker^https://fonts.googleapis.com/css?family=Permanent+Marker">
      <root>
        <mxCell id="0" />
        <mxCell id="1" parent="0" />
        <mxCell id="OgUfn2I_BESfwxIYCQZJ-7" value="" style="group;fontSize=17;" vertex="1" connectable="0" parent="1">
          <mxGeometry x="-280" y="90" width="720" height="120" as="geometry" />
        </mxCell>
        <mxCell id="OgUfn2I_BESfwxIYCQZJ-4" value="&lt;font&gt;&lt;u&gt;ID&lt;/u&gt;&lt;/font&gt;" style="rounded=0;whiteSpace=wrap;html=1;fontSize=17;" vertex="1" parent="OgUfn2I_BESfwxIYCQZJ-7">
          <mxGeometry y="60" width="120" height="60" as="geometry" />
        </mxCell>
        <mxCell id="OgUfn2I_BESfwxIYCQZJ-5" value="&lt;font&gt;Admin&lt;/font&gt;" style="rounded=0;whiteSpace=wrap;html=1;fontSize=17;" vertex="1" parent="OgUfn2I_BESfwxIYCQZJ-7">
          <mxGeometry width="120" height="60" as="geometry" />
        </mxCell>
        <mxCell id="OgUfn2I_BESfwxIYCQZJ-23" value="&lt;font&gt;&lt;u&gt;Role_ID&lt;/u&gt;&lt;/font&gt;" style="rounded=0;whiteSpace=wrap;html=1;fontSize=17;" vertex="1" parent="OgUfn2I_BESfwxIYCQZJ-7">
          <mxGeometry x="120" y="60" width="120" height="60" as="geometry" />
        </mxCell>
        <mxCell id="OgUfn2I_BESfwxIYCQZJ-3" value="&lt;font&gt;Name&lt;/font&gt;" style="rounded=0;whiteSpace=wrap;html=1;fontSize=17;" vertex="1" parent="OgUfn2I_BESfwxIYCQZJ-7">
          <mxGeometry x="240" y="60" width="120" height="60" as="geometry" />
        </mxCell>
        <mxCell id="OgUfn2I_BESfwxIYCQZJ-1" value="Password" style="rounded=0;whiteSpace=wrap;html=1;fontSize=17;" vertex="1" parent="OgUfn2I_BESfwxIYCQZJ-7">
          <mxGeometry x="480" y="60" width="120" height="60" as="geometry" />
        </mxCell>
        <mxCell id="OgUfn2I_BESfwxIYCQZJ-2" value="Email" style="rounded=0;whiteSpace=wrap;html=1;fontSize=17;" vertex="1" parent="OgUfn2I_BESfwxIYCQZJ-7">
          <mxGeometry x="360" y="60" width="120" height="60" as="geometry" />
        </mxCell>
        <mxCell id="OgUfn2I_BESfwxIYCQZJ-6" value="Verified" style="rounded=0;whiteSpace=wrap;html=1;fontSize=17;" vertex="1" parent="OgUfn2I_BESfwxIYCQZJ-7">
          <mxGeometry x="600" y="60" width="120" height="60" as="geometry" />
        </mxCell>
        <mxCell id="OgUfn2I_BESfwxIYCQZJ-16" value="" style="group;fontSize=17;" vertex="1" connectable="0" parent="1">
          <mxGeometry x="-280" y="340" width="680" height="120" as="geometry" />
        </mxCell>
        <mxCell id="OgUfn2I_BESfwxIYCQZJ-19" value="&lt;font&gt;Name&lt;/font&gt;" style="rounded=0;whiteSpace=wrap;html=1;fontSize=17;" vertex="1" parent="OgUfn2I_BESfwxIYCQZJ-16">
          <mxGeometry x="120" y="60" width="120" height="60" as="geometry" />
        </mxCell>
        <mxCell id="OgUfn2I_BESfwxIYCQZJ-20" value="&lt;font&gt;&lt;u style=&quot;&quot;&gt;ID&lt;/u&gt;&lt;/font&gt;" style="rounded=0;whiteSpace=wrap;html=1;fontSize=17;" vertex="1" parent="OgUfn2I_BESfwxIYCQZJ-16">
          <mxGeometry y="60" width="120" height="60" as="geometry" />
        </mxCell>
        <mxCell id="OgUfn2I_BESfwxIYCQZJ-21" value="&lt;font&gt;Role&lt;/font&gt;" style="rounded=0;whiteSpace=wrap;html=1;fontSize=17;" vertex="1" parent="OgUfn2I_BESfwxIYCQZJ-16">
          <mxGeometry width="120" height="60" as="geometry" />
        </mxCell>
        <mxCell id="OgUfn2I_BESfwxIYCQZJ-27" value="" style="group;fontSize=17;" vertex="1" connectable="0" parent="1">
          <mxGeometry x="-70" y="530" width="720" height="140" as="geometry" />
        </mxCell>
        <mxCell id="OgUfn2I_BESfwxIYCQZJ-8" value="" style="group;fontSize=17;" vertex="1" connectable="0" parent="OgUfn2I_BESfwxIYCQZJ-27">
          <mxGeometry x="-210" y="20" width="600" height="120" as="geometry" />
        </mxCell>
        <mxCell id="OgUfn2I_BESfwxIYCQZJ-12" value="&lt;font&gt;ID&lt;/font&gt;" style="rounded=0;whiteSpace=wrap;html=1;fontSize=17;" vertex="1" parent="OgUfn2I_BESfwxIYCQZJ-8">
          <mxGeometry y="60" width="120" height="60" as="geometry" />
        </mxCell>
        <mxCell id="OgUfn2I_BESfwxIYCQZJ-13" value="&lt;font&gt;Report&lt;/font&gt;" style="rounded=0;whiteSpace=wrap;html=1;fontSize=17;" vertex="1" parent="OgUfn2I_BESfwxIYCQZJ-8">
          <mxGeometry width="120" height="60" as="geometry" />
        </mxCell>
        <mxCell id="OgUfn2I_BESfwxIYCQZJ-25" value="Admin_ID" style="rounded=0;whiteSpace=wrap;html=1;fontSize=17;" vertex="1" parent="OgUfn2I_BESfwxIYCQZJ-8">
          <mxGeometry x="120" y="60" width="120" height="60" as="geometry" />
        </mxCell>
        <mxCell id="OgUfn2I_BESfwxIYCQZJ-11" value="Name" style="rounded=0;whiteSpace=wrap;html=1;fontSize=17;" vertex="1" parent="OgUfn2I_BESfwxIYCQZJ-8">
          <mxGeometry x="240" y="60" width="120" height="60" as="geometry" />
        </mxCell>
        <mxCell id="OgUfn2I_BESfwxIYCQZJ-9" value="Format" style="rounded=0;whiteSpace=wrap;html=1;fontSize=17;" vertex="1" parent="OgUfn2I_BESfwxIYCQZJ-8">
          <mxGeometry x="355" y="60" width="120" height="60" as="geometry" />
        </mxCell>
        <mxCell id="OgUfn2I_BESfwxIYCQZJ-10" value="Report_spec" style="rounded=0;whiteSpace=wrap;html=1;fontSize=17;" vertex="1" parent="OgUfn2I_BESfwxIYCQZJ-8">
          <mxGeometry x="475" y="60" width="120" height="60" as="geometry" />
        </mxCell>
        <mxCell id="OgUfn2I_BESfwxIYCQZJ-14" value="Created_at" style="rounded=0;whiteSpace=wrap;html=1;fontSize=17;" vertex="1" parent="OgUfn2I_BESfwxIYCQZJ-27">
          <mxGeometry x="380" y="80" width="120" height="60" as="geometry" />
        </mxCell>
        <mxCell id="OgUfn2I_BESfwxIYCQZJ-31" value="" style="group;fontSize=17;" vertex="1" connectable="0" parent="1">
          <mxGeometry x="-280" y="800" width="720" height="120" as="geometry" />
        </mxCell>
        <mxCell id="OgUfn2I_BESfwxIYCQZJ-32" value="&lt;font&gt;&lt;u&gt;ID&lt;/u&gt;&lt;/font&gt;" style="rounded=0;whiteSpace=wrap;html=1;fontSize=17;" vertex="1" parent="OgUfn2I_BESfwxIYCQZJ-31">
          <mxGeometry y="60" width="120" height="60" as="geometry" />
        </mxCell>
        <mxCell id="OgUfn2I_BESfwxIYCQZJ-33" value="&lt;font&gt;Driver&lt;/font&gt;" style="rounded=0;whiteSpace=wrap;html=1;fontSize=17;" vertex="1" parent="OgUfn2I_BESfwxIYCQZJ-31">
          <mxGeometry width="120" height="60" as="geometry" />
        </mxCell>
        <mxCell id="OgUfn2I_BESfwxIYCQZJ-35" value="&lt;font&gt;Name&lt;/font&gt;" style="rounded=0;whiteSpace=wrap;html=1;fontSize=17;" vertex="1" parent="OgUfn2I_BESfwxIYCQZJ-31">
          <mxGeometry x="120" y="60" width="120" height="60" as="geometry" />
        </mxCell>
        <mxCell id="OgUfn2I_BESfwxIYCQZJ-36" value="Password" style="rounded=0;whiteSpace=wrap;html=1;fontSize=17;" vertex="1" parent="OgUfn2I_BESfwxIYCQZJ-31">
          <mxGeometry x="360" y="60" width="120" height="60" as="geometry" />
        </mxCell>
        <mxCell id="OgUfn2I_BESfwxIYCQZJ-37" value="Email" style="rounded=0;whiteSpace=wrap;html=1;fontSize=17;" vertex="1" parent="OgUfn2I_BESfwxIYCQZJ-31">
          <mxGeometry x="240" y="60" width="120" height="60" as="geometry" />
        </mxCell>
        <mxCell id="OgUfn2I_BESfwxIYCQZJ-39" value="" style="group;fontSize=17;" vertex="1" connectable="0" parent="1">
          <mxGeometry x="-280" y="1070" width="720" height="120" as="geometry" />
        </mxCell>
        <mxCell id="OgUfn2I_BESfwxIYCQZJ-40" value="&lt;font&gt;&lt;u&gt;ID&lt;/u&gt;&lt;/font&gt;" style="rounded=0;whiteSpace=wrap;html=1;fontSize=17;" vertex="1" parent="OgUfn2I_BESfwxIYCQZJ-39">
          <mxGeometry y="60" width="120" height="60" as="geometry" />
        </mxCell>
        <mxCell id="OgUfn2I_BESfwxIYCQZJ-41" value="&lt;font&gt;Vehicle&lt;/font&gt;" style="rounded=0;whiteSpace=wrap;html=1;fontSize=17;" vertex="1" parent="OgUfn2I_BESfwxIYCQZJ-39">
          <mxGeometry width="120" height="60" as="geometry" />
        </mxCell>
        <mxCell id="OgUfn2I_BESfwxIYCQZJ-45" value="Owner_ID" style="rounded=0;whiteSpace=wrap;html=1;fontSize=17;" vertex="1" parent="OgUfn2I_BESfwxIYCQZJ-39">
          <mxGeometry x="120" y="60" width="120" height="60" as="geometry" />
        </mxCell>
        <mxCell id="OgUfn2I_BESfwxIYCQZJ-43" value="&lt;font&gt;Region code&lt;/font&gt;" style="rounded=0;whiteSpace=wrap;html=1;fontSize=17;" vertex="1" parent="OgUfn2I_BESfwxIYCQZJ-39">
          <mxGeometry x="360" y="60" width="120" height="60" as="geometry" />
        </mxCell>
        <mxCell id="OgUfn2I_BESfwxIYCQZJ-42" value="&lt;font&gt;Plate text&lt;/font&gt;" style="rounded=0;whiteSpace=wrap;html=1;fontSize=17;" vertex="1" parent="OgUfn2I_BESfwxIYCQZJ-39">
          <mxGeometry x="240" y="60" width="120" height="60" as="geometry" />
        </mxCell>
        <mxCell id="OgUfn2I_BESfwxIYCQZJ-47" value="" style="group;fontSize=17;" vertex="1" connectable="0" parent="1">
          <mxGeometry x="-280" y="1330" width="720" height="120" as="geometry" />
        </mxCell>
        <mxCell id="OgUfn2I_BESfwxIYCQZJ-48" value="&lt;font&gt;&lt;u&gt;ID&lt;/u&gt;&lt;/font&gt;" style="rounded=0;whiteSpace=wrap;html=1;fontSize=17;" vertex="1" parent="OgUfn2I_BESfwxIYCQZJ-47">
          <mxGeometry y="60" width="120" height="60" as="geometry" />
        </mxCell>
        <mxCell id="OgUfn2I_BESfwxIYCQZJ-49" value="&lt;font&gt;Black List&lt;/font&gt;" style="rounded=0;whiteSpace=wrap;html=1;fontSize=17;" vertex="1" parent="OgUfn2I_BESfwxIYCQZJ-47">
          <mxGeometry width="120" height="60" as="geometry" />
        </mxCell>
        <mxCell id="OgUfn2I_BESfwxIYCQZJ-50" value="&lt;font&gt;&lt;u&gt;Vehicle_id&lt;/u&gt;&lt;/font&gt;" style="rounded=0;whiteSpace=wrap;html=1;fontSize=17;" vertex="1" parent="OgUfn2I_BESfwxIYCQZJ-47">
          <mxGeometry x="120" y="60" width="120" height="60" as="geometry" />
        </mxCell>
        <mxCell id="OgUfn2I_BESfwxIYCQZJ-52" value="Active_to" style="rounded=0;whiteSpace=wrap;html=1;fontSize=17;" vertex="1" parent="OgUfn2I_BESfwxIYCQZJ-47">
          <mxGeometry x="360" y="60" width="120" height="60" as="geometry" />
        </mxCell>
        <mxCell id="OgUfn2I_BESfwxIYCQZJ-53" value="Active_from" style="rounded=0;whiteSpace=wrap;html=1;fontSize=17;" vertex="1" parent="OgUfn2I_BESfwxIYCQZJ-47">
          <mxGeometry x="240" y="60" width="120" height="60" as="geometry" />
        </mxCell>
        <mxCell id="OgUfn2I_BESfwxIYCQZJ-82" value="" style="group;fontSize=17;" vertex="1" connectable="0" parent="1">
          <mxGeometry x="-280" y="1590" width="960" height="120" as="geometry" />
        </mxCell>
        <mxCell id="OgUfn2I_BESfwxIYCQZJ-55" value="" style="group;fontSize=17;" vertex="1" connectable="0" parent="OgUfn2I_BESfwxIYCQZJ-82">
          <mxGeometry width="720" height="120" as="geometry" />
        </mxCell>
        <mxCell id="OgUfn2I_BESfwxIYCQZJ-65" value="" style="group;fontSize=17;" vertex="1" connectable="0" parent="OgUfn2I_BESfwxIYCQZJ-55">
          <mxGeometry width="720" height="120" as="geometry" />
        </mxCell>
        <mxCell id="OgUfn2I_BESfwxIYCQZJ-56" value="&lt;font&gt;&lt;u&gt;ID&lt;/u&gt;&lt;/font&gt;" style="rounded=0;whiteSpace=wrap;html=1;fontSize=17;" vertex="1" parent="OgUfn2I_BESfwxIYCQZJ-65">
          <mxGeometry y="60" width="120" height="60" as="geometry" />
        </mxCell>
        <mxCell id="OgUfn2I_BESfwxIYCQZJ-57" value="&lt;font&gt;Subscription(WhiteListed)&lt;/font&gt;" style="rounded=0;whiteSpace=wrap;html=1;fontSize=17;" vertex="1" parent="OgUfn2I_BESfwxIYCQZJ-65">
          <mxGeometry width="210" height="60" as="geometry" />
        </mxCell>
        <mxCell id="OgUfn2I_BESfwxIYCQZJ-58" value="&lt;span&gt;&lt;u&gt;Driver_ID&lt;/u&gt;&lt;/span&gt;" style="rounded=0;whiteSpace=wrap;html=1;fontSize=17;" vertex="1" parent="OgUfn2I_BESfwxIYCQZJ-65">
          <mxGeometry x="120" y="60" width="120" height="60" as="geometry" />
        </mxCell>
        <mxCell id="OgUfn2I_BESfwxIYCQZJ-59" value="&lt;font&gt;Vehicle_ID&lt;/font&gt;" style="rounded=0;whiteSpace=wrap;html=1;fontSize=17;" vertex="1" parent="OgUfn2I_BESfwxIYCQZJ-65">
          <mxGeometry x="240" y="60" width="120" height="60" as="geometry" />
        </mxCell>
        <mxCell id="OgUfn2I_BESfwxIYCQZJ-60" value="status" style="rounded=0;whiteSpace=wrap;html=1;fontSize=17;" vertex="1" parent="OgUfn2I_BESfwxIYCQZJ-65">
          <mxGeometry x="480" y="60" width="120" height="60" as="geometry" />
        </mxCell>
        <mxCell id="OgUfn2I_BESfwxIYCQZJ-61" value="Plan" style="rounded=0;whiteSpace=wrap;html=1;fontSize=17;" vertex="1" parent="OgUfn2I_BESfwxIYCQZJ-65">
          <mxGeometry x="360" y="60" width="120" height="60" as="geometry" />
        </mxCell>
        <mxCell id="OgUfn2I_BESfwxIYCQZJ-62" value="subscribed_at" style="rounded=0;whiteSpace=wrap;html=1;fontSize=17;" vertex="1" parent="OgUfn2I_BESfwxIYCQZJ-65">
          <mxGeometry x="600" y="60" width="120" height="60" as="geometry" />
        </mxCell>
        <mxCell id="OgUfn2I_BESfwxIYCQZJ-63" value="expiry_date" style="rounded=0;whiteSpace=wrap;html=1;fontSize=17;" vertex="1" parent="OgUfn2I_BESfwxIYCQZJ-82">
          <mxGeometry x="720" y="60" width="120" height="60" as="geometry" />
        </mxCell>
        <mxCell id="OgUfn2I_BESfwxIYCQZJ-64" value="auto_renew" style="rounded=0;whiteSpace=wrap;html=1;fontSize=17;" vertex="1" parent="OgUfn2I_BESfwxIYCQZJ-82">
          <mxGeometry x="840" y="60" width="120" height="60" as="geometry" />
        </mxCell>
        <mxCell id="OgUfn2I_BESfwxIYCQZJ-83" value="" style="group;fontSize=17;" vertex="1" connectable="0" parent="1">
          <mxGeometry x="-280" y="1800" width="1080" height="120" as="geometry" />
        </mxCell>
        <mxCell id="OgUfn2I_BESfwxIYCQZJ-68" value="" style="group;fontSize=17;" vertex="1" connectable="0" parent="OgUfn2I_BESfwxIYCQZJ-83">
          <mxGeometry width="720" height="120" as="geometry" />
        </mxCell>
        <mxCell id="OgUfn2I_BESfwxIYCQZJ-69" value="&lt;font&gt;&lt;u&gt;ID&lt;/u&gt;&lt;/font&gt;" style="rounded=0;whiteSpace=wrap;html=1;fontSize=17;" vertex="1" parent="OgUfn2I_BESfwxIYCQZJ-68">
          <mxGeometry y="60" width="120" height="60" as="geometry" />
        </mxCell>
        <mxCell id="OgUfn2I_BESfwxIYCQZJ-70" value="&lt;font&gt;Session&lt;/font&gt;" style="rounded=0;whiteSpace=wrap;html=1;fontSize=17;" vertex="1" parent="OgUfn2I_BESfwxIYCQZJ-68">
          <mxGeometry width="120" height="60" as="geometry" />
        </mxCell>
        <mxCell id="OgUfn2I_BESfwxIYCQZJ-71" value="&lt;span&gt;&lt;u&gt;Vehicle_ID&lt;/u&gt;&lt;/span&gt;" style="rounded=0;whiteSpace=wrap;html=1;fontSize=17;" vertex="1" parent="OgUfn2I_BESfwxIYCQZJ-68">
          <mxGeometry x="120" y="60" width="120" height="60" as="geometry" />
        </mxCell>
        <mxCell id="OgUfn2I_BESfwxIYCQZJ-72" value="&lt;font&gt;Entry_time&lt;/font&gt;" style="rounded=0;whiteSpace=wrap;html=1;fontSize=17;" vertex="1" parent="OgUfn2I_BESfwxIYCQZJ-68">
          <mxGeometry x="360" y="60" width="120" height="60" as="geometry" />
        </mxCell>
        <mxCell id="OgUfn2I_BESfwxIYCQZJ-73" value="status" style="rounded=0;whiteSpace=wrap;html=1;fontSize=17;" vertex="1" parent="OgUfn2I_BESfwxIYCQZJ-68">
          <mxGeometry x="600" y="60" width="120" height="60" as="geometry" />
        </mxCell>
        <mxCell id="OgUfn2I_BESfwxIYCQZJ-74" value="Exit_time" style="rounded=0;whiteSpace=wrap;html=1;fontSize=17;" vertex="1" parent="OgUfn2I_BESfwxIYCQZJ-68">
          <mxGeometry x="480" y="60" width="120" height="60" as="geometry" />
        </mxCell>
        <mxCell id="OgUfn2I_BESfwxIYCQZJ-78" value="pricing_rule" style="rounded=0;whiteSpace=wrap;html=1;fontSize=17;" vertex="1" parent="OgUfn2I_BESfwxIYCQZJ-68">
          <mxGeometry x="240" y="60" width="120" height="60" as="geometry" />
        </mxCell>
        <mxCell id="OgUfn2I_BESfwxIYCQZJ-80" value="" style="group;fontSize=17;" vertex="1" connectable="0" parent="OgUfn2I_BESfwxIYCQZJ-83">
          <mxGeometry x="720" y="60" width="360" height="60" as="geometry" />
        </mxCell>
        <mxCell id="OgUfn2I_BESfwxIYCQZJ-76" value="duration" style="rounded=0;whiteSpace=wrap;html=1;fontSize=17;" vertex="1" parent="OgUfn2I_BESfwxIYCQZJ-80">
          <mxGeometry x="120" width="120" height="60" as="geometry" />
        </mxCell>
        <mxCell id="OgUfn2I_BESfwxIYCQZJ-79" value="amount_charged" style="rounded=0;whiteSpace=wrap;html=1;fontSize=17;" vertex="1" parent="OgUfn2I_BESfwxIYCQZJ-80">
          <mxGeometry x="240" width="120" height="60" as="geometry" />
        </mxCell>
        <mxCell id="OgUfn2I_BESfwxIYCQZJ-75" value="acces_type" style="rounded=0;whiteSpace=wrap;html=1;fontSize=17;" vertex="1" parent="OgUfn2I_BESfwxIYCQZJ-80">
          <mxGeometry width="120" height="60" as="geometry" />
        </mxCell>
        <mxCell id="OgUfn2I_BESfwxIYCQZJ-123" value="" style="endArrow=classic;html=1;rounded=0;exitX=0.5;exitY=1;exitDx=0;exitDy=0;entryX=0.599;entryY=-0.02;entryDx=0;entryDy=0;entryPerimeter=0;" edge="1" parent="1" source="OgUfn2I_BESfwxIYCQZJ-23" target="OgUfn2I_BESfwxIYCQZJ-21">
          <mxGeometry width="50" height="50" relative="1" as="geometry">
            <mxPoint x="-140" y="340" as="sourcePoint" />
            <mxPoint x="-50" y="210" as="targetPoint" />
          </mxGeometry>
        </mxCell>
        <mxCell id="OgUfn2I_BESfwxIYCQZJ-124" value="" style="endArrow=classic;html=1;rounded=0;exitX=0.5;exitY=0;exitDx=0;exitDy=0;entryX=0.406;entryY=1.018;entryDx=0;entryDy=0;entryPerimeter=0;" edge="1" parent="1" source="OgUfn2I_BESfwxIYCQZJ-25" target="OgUfn2I_BESfwxIYCQZJ-4">
          <mxGeometry width="50" height="50" relative="1" as="geometry">
            <mxPoint x="80" y="610" as="sourcePoint" />
            <mxPoint x="130" y="560" as="targetPoint" />
            <Array as="points">
              <mxPoint x="160" y="510" />
              <mxPoint x="160" y="290" />
            </Array>
          </mxGeometry>
        </mxCell>
        <mxCell id="OgUfn2I_BESfwxIYCQZJ-125" value="" style="endArrow=classic;html=1;rounded=0;exitX=0.5;exitY=0;exitDx=0;exitDy=0;entryX=0.612;entryY=0.993;entryDx=0;entryDy=0;entryPerimeter=0;" edge="1" parent="1" source="OgUfn2I_BESfwxIYCQZJ-45" target="OgUfn2I_BESfwxIYCQZJ-32">
          <mxGeometry width="50" height="50" relative="1" as="geometry">
            <mxPoint x="80" y="890" as="sourcePoint" />
            <mxPoint x="130" y="840" as="targetPoint" />
          </mxGeometry>
        </mxCell>
        <mxCell id="OgUfn2I_BESfwxIYCQZJ-127" value="" style="endArrow=classic;html=1;rounded=0;exitX=0.5;exitY=0;exitDx=0;exitDy=0;entryX=0.75;entryY=1;entryDx=0;entryDy=0;" edge="1" parent="1" source="OgUfn2I_BESfwxIYCQZJ-50" target="OgUfn2I_BESfwxIYCQZJ-40">
          <mxGeometry width="50" height="50" relative="1" as="geometry">
            <mxPoint x="80" y="1290" as="sourcePoint" />
            <mxPoint x="130" y="1240" as="targetPoint" />
          </mxGeometry>
        </mxCell>
        <mxCell id="OgUfn2I_BESfwxIYCQZJ-128" value="" style="endArrow=classic;html=1;rounded=0;exitX=0.849;exitY=0.018;exitDx=0;exitDy=0;exitPerimeter=0;entryX=0.874;entryY=1.018;entryDx=0;entryDy=0;entryPerimeter=0;" edge="1" parent="1" source="OgUfn2I_BESfwxIYCQZJ-58" target="OgUfn2I_BESfwxIYCQZJ-32">
          <mxGeometry width="50" height="50" relative="1" as="geometry">
            <mxPoint x="80" y="1290" as="sourcePoint" />
            <mxPoint x="-170" y="930" as="targetPoint" />
            <Array as="points">
              <mxPoint x="320" y="1540" />
              <mxPoint x="320" y="1100" />
            </Array>
          </mxGeometry>
        </mxCell>
        <mxCell id="OgUfn2I_BESfwxIYCQZJ-129" value="" style="group" vertex="1" connectable="0" parent="1">
          <mxGeometry x="-290" y="2270" width="1200" height="120" as="geometry" />
        </mxCell>
        <mxCell id="OgUfn2I_BESfwxIYCQZJ-84" value="" style="group;fontSize=17;" vertex="1" connectable="0" parent="OgUfn2I_BESfwxIYCQZJ-129">
          <mxGeometry width="960" height="120" as="geometry" />
        </mxCell>
        <mxCell id="OgUfn2I_BESfwxIYCQZJ-85" value="" style="group;fontSize=17;" vertex="1" connectable="0" parent="OgUfn2I_BESfwxIYCQZJ-84">
          <mxGeometry width="720" height="120" as="geometry" />
        </mxCell>
        <mxCell id="OgUfn2I_BESfwxIYCQZJ-86" value="" style="group;fontSize=17;" vertex="1" connectable="0" parent="OgUfn2I_BESfwxIYCQZJ-85">
          <mxGeometry width="720" height="120" as="geometry" />
        </mxCell>
        <mxCell id="OgUfn2I_BESfwxIYCQZJ-87" value="&lt;font&gt;&lt;u&gt;ID&lt;/u&gt;&lt;/font&gt;" style="rounded=0;whiteSpace=wrap;html=1;fontSize=17;" vertex="1" parent="OgUfn2I_BESfwxIYCQZJ-86">
          <mxGeometry y="60" width="120" height="60" as="geometry" />
        </mxCell>
        <mxCell id="OgUfn2I_BESfwxIYCQZJ-88" value="&lt;font&gt;Tarrif&lt;/font&gt;" style="rounded=0;whiteSpace=wrap;html=1;fontSize=17;" vertex="1" parent="OgUfn2I_BESfwxIYCQZJ-86">
          <mxGeometry width="210" height="60" as="geometry" />
        </mxCell>
        <mxCell id="OgUfn2I_BESfwxIYCQZJ-89" value="&lt;span&gt;Name&lt;/span&gt;" style="rounded=0;whiteSpace=wrap;html=1;fontSize=17;" vertex="1" parent="OgUfn2I_BESfwxIYCQZJ-86">
          <mxGeometry x="120" y="60" width="120" height="60" as="geometry" />
        </mxCell>
        <mxCell id="OgUfn2I_BESfwxIYCQZJ-90" value="&lt;font&gt;currency&lt;/font&gt;" style="rounded=0;whiteSpace=wrap;html=1;fontSize=17;" vertex="1" parent="OgUfn2I_BESfwxIYCQZJ-86">
          <mxGeometry x="240" y="60" width="120" height="60" as="geometry" />
        </mxCell>
        <mxCell id="OgUfn2I_BESfwxIYCQZJ-91" value="price_per_min" style="rounded=0;whiteSpace=wrap;html=1;fontSize=17;" vertex="1" parent="OgUfn2I_BESfwxIYCQZJ-86">
          <mxGeometry x="480" y="60" width="120" height="60" as="geometry" />
        </mxCell>
        <mxCell id="OgUfn2I_BESfwxIYCQZJ-92" value="free minutes" style="rounded=0;whiteSpace=wrap;html=1;fontSize=17;" vertex="1" parent="OgUfn2I_BESfwxIYCQZJ-86">
          <mxGeometry x="360" y="60" width="120" height="60" as="geometry" />
        </mxCell>
        <mxCell id="OgUfn2I_BESfwxIYCQZJ-93" value="is_whitelisted" style="rounded=0;whiteSpace=wrap;html=1;fontSize=17;" vertex="1" parent="OgUfn2I_BESfwxIYCQZJ-86">
          <mxGeometry x="600" y="60" width="120" height="60" as="geometry" />
        </mxCell>
        <mxCell id="OgUfn2I_BESfwxIYCQZJ-94" value="cap" style="rounded=0;whiteSpace=wrap;html=1;fontSize=17;" vertex="1" parent="OgUfn2I_BESfwxIYCQZJ-84">
          <mxGeometry x="720" y="60" width="120" height="60" as="geometry" />
        </mxCell>
        <mxCell id="OgUfn2I_BESfwxIYCQZJ-95" value="valid_from" style="rounded=0;whiteSpace=wrap;html=1;fontSize=17;" vertex="1" parent="OgUfn2I_BESfwxIYCQZJ-84">
          <mxGeometry x="840" y="60" width="120" height="60" as="geometry" />
        </mxCell>
        <mxCell id="OgUfn2I_BESfwxIYCQZJ-108" value="valid_to" style="rounded=0;whiteSpace=wrap;html=1;fontSize=17;" vertex="1" parent="OgUfn2I_BESfwxIYCQZJ-129">
          <mxGeometry x="960" y="60" width="120" height="60" as="geometry" />
        </mxCell>
        <mxCell id="OgUfn2I_BESfwxIYCQZJ-109" value="created_at" style="rounded=0;whiteSpace=wrap;html=1;fontSize=17;" vertex="1" parent="OgUfn2I_BESfwxIYCQZJ-129">
          <mxGeometry x="1080" y="60" width="120" height="60" as="geometry" />
        </mxCell>
        <mxCell id="OgUfn2I_BESfwxIYCQZJ-130" value="" style="endArrow=classic;html=1;rounded=0;exitX=0.349;exitY=0.967;exitDx=0;exitDy=0;entryX=1;entryY=0.5;entryDx=0;entryDy=0;exitPerimeter=0;" edge="1" parent="1" source="OgUfn2I_BESfwxIYCQZJ-78" target="OgUfn2I_BESfwxIYCQZJ-88">
          <mxGeometry width="50" height="50" relative="1" as="geometry">
            <mxPoint x="60" y="2030" as="sourcePoint" />
            <mxPoint x="110" y="1980" as="targetPoint" />
            <Array as="points">
              <mxPoint y="2040" />
              <mxPoint x="680" y="2040" />
              <mxPoint x="680" y="2280" />
            </Array>
          </mxGeometry>
        </mxCell>
        <mxCell id="OgUfn2I_BESfwxIYCQZJ-131" value="" style="group" vertex="1" connectable="0" parent="1">
          <mxGeometry x="-290" y="2040" width="840" height="120" as="geometry" />
        </mxCell>
        <mxCell id="OgUfn2I_BESfwxIYCQZJ-113" value="" style="group;fontSize=17;" vertex="1" connectable="0" parent="OgUfn2I_BESfwxIYCQZJ-131">
          <mxGeometry width="720" height="120" as="geometry" />
        </mxCell>
        <mxCell id="OgUfn2I_BESfwxIYCQZJ-114" value="&lt;font&gt;&lt;u&gt;ID&lt;/u&gt;&lt;/font&gt;" style="rounded=0;whiteSpace=wrap;html=1;fontSize=17;" vertex="1" parent="OgUfn2I_BESfwxIYCQZJ-113">
          <mxGeometry y="60" width="120" height="60" as="geometry" />
        </mxCell>
        <mxCell id="OgUfn2I_BESfwxIYCQZJ-115" value="&lt;font&gt;Payment&lt;/font&gt;" style="rounded=0;whiteSpace=wrap;html=1;fontSize=17;" vertex="1" parent="OgUfn2I_BESfwxIYCQZJ-113">
          <mxGeometry width="120" height="60" as="geometry" />
        </mxCell>
        <mxCell id="OgUfn2I_BESfwxIYCQZJ-116" value="&lt;font&gt;&lt;u&gt;Session_ID&lt;/u&gt;&lt;/font&gt;" style="rounded=0;whiteSpace=wrap;html=1;fontSize=17;" vertex="1" parent="OgUfn2I_BESfwxIYCQZJ-113">
          <mxGeometry x="120" y="60" width="120" height="60" as="geometry" />
        </mxCell>
        <mxCell id="OgUfn2I_BESfwxIYCQZJ-118" value="Paid_at" style="rounded=0;whiteSpace=wrap;html=1;fontSize=17;" vertex="1" parent="OgUfn2I_BESfwxIYCQZJ-113">
          <mxGeometry x="480" y="60" width="120" height="60" as="geometry" />
        </mxCell>
        <mxCell id="OgUfn2I_BESfwxIYCQZJ-119" value="Status" style="rounded=0;whiteSpace=wrap;html=1;fontSize=17;" vertex="1" parent="OgUfn2I_BESfwxIYCQZJ-113">
          <mxGeometry x="360" y="60" width="120" height="60" as="geometry" />
        </mxCell>
        <mxCell id="OgUfn2I_BESfwxIYCQZJ-120" value="receipt_url" style="rounded=0;whiteSpace=wrap;html=1;fontSize=17;" vertex="1" parent="OgUfn2I_BESfwxIYCQZJ-113">
          <mxGeometry x="600" y="60" width="120" height="60" as="geometry" />
        </mxCell>
        <mxCell id="OgUfn2I_BESfwxIYCQZJ-121" value="&lt;font&gt;Driver_id&lt;/font&gt;" style="rounded=0;whiteSpace=wrap;html=1;fontSize=17;" vertex="1" parent="OgUfn2I_BESfwxIYCQZJ-113">
          <mxGeometry x="240" y="60" width="120" height="60" as="geometry" />
        </mxCell>
        <mxCell id="OgUfn2I_BESfwxIYCQZJ-117" value="&lt;font&gt;Method&lt;/font&gt;" style="rounded=0;whiteSpace=wrap;html=1;fontSize=17;" vertex="1" parent="OgUfn2I_BESfwxIYCQZJ-131">
          <mxGeometry x="720" y="60" width="120" height="60" as="geometry" />
        </mxCell>
        <mxCell id="OgUfn2I_BESfwxIYCQZJ-133" value="" style="endArrow=classic;html=1;rounded=0;entryX=0.644;entryY=0.993;entryDx=0;entryDy=0;entryPerimeter=0;exitX=0.5;exitY=0;exitDx=0;exitDy=0;" edge="1" parent="1" source="OgUfn2I_BESfwxIYCQZJ-116" target="OgUfn2I_BESfwxIYCQZJ-69">
          <mxGeometry width="50" height="50" relative="1" as="geometry">
            <mxPoint x="70" y="2310" as="sourcePoint" />
            <mxPoint x="-190" y="1930" as="targetPoint" />
          </mxGeometry>
        </mxCell>
      </root>
    </mxGraphModel>
  </diagram>
</mxfile>
